<svg width="195" height="51" viewBox="0 0 195 51" fill="none" xmlns="http://www.w3.org/2000/svg">
<g clip-path="url(#clip0_1_5)">
<path fill-rule="evenodd" clip-rule="evenodd" d="M0.585449 7.17764C0.851552 7.63956 1.40593 8.01497 2.24859 8.30367C4.22218 5.53192 7.5152 3.88619 12.1277 3.3665C12.2164 5.88801 12.2607 8.68861 12.2607 11.7683C12.2607 15.4544 12.2052 18.51 12.0944 20.9353C12.0722 21.2721 10.8581 21.5464 8.45211 21.7581C8.17492 22.3356 8.17492 22.9563 8.45211 23.6204C12.5323 23.5434 15.016 23.5049 15.903 23.5049C16.4906 23.5049 18.5806 23.5434 22.1731 23.6204C22.4059 22.9949 22.428 22.3741 22.2396 21.7581C19.7892 21.5464 18.553 21.2625 18.5307 20.9064C18.4199 18.9912 18.3644 15.9452 18.3644 11.7683C18.3644 8.49614 18.4088 5.66665 18.4975 3.27988C21.3137 3.27988 23.6034 3.76108 25.3663 4.72349C27.1403 5.67628 28.4819 6.86966 29.391 8.30367C30.3224 8.01497 30.9156 7.63956 31.1706 7.17764C29.7181 5.08921 28.8533 3.10183 28.5761 1.21551H14.7222H3.19658C3.08571 1.96619 2.88613 2.71205 2.59785 3.45311C2.32066 4.18454 2.07119 4.72831 1.84944 5.0844C1.63877 5.44049 1.21745 6.13823 0.585449 7.17764ZM12.7763 2.63025L6.95528 2.77461C6.45634 2.77461 5.9075 3.02484 5.30877 3.52529C4.72113 4.01612 4.2111 4.53101 3.77868 5.06996C3.34627 5.60891 2.73644 6.44139 1.94922 7.56742C1.64986 7.47119 1.45583 7.34124 1.36713 7.17764C1.41147 7.11989 1.5667 6.86004 1.8328 6.39808C2.10999 5.93613 2.2874 5.63778 2.36501 5.50304C2.44262 5.35868 2.58676 5.0844 2.79743 4.68018C3.01918 4.27597 3.1744 3.95356 3.26311 3.71296C3.3629 3.46274 3.46823 3.15958 3.5791 2.80348C3.68998 2.44739 3.76759 2.10574 3.81194 1.77852C4.99832 1.77852 6.81114 1.78333 9.25043 1.79295C11.6897 1.80258 13.5136 1.80739 14.7222 1.80739H20.4101C23.1266 1.80739 25.1722 2.2116 26.5471 3.02003C27.922 3.82845 29.1638 5.21432 30.2725 7.17764C30.1838 7.34124 29.9954 7.47119 29.707 7.56742C27.7778 4.42996 24.0524 2.80348 18.5307 2.688L15.9695 2.63025C15.8586 5.01703 15.8032 8.06309 15.8032 11.7683C15.8032 14.6844 15.8586 17.7401 15.9695 20.9353C15.9916 21.6667 17.8433 22.1287 21.5244 22.3211C21.6131 22.6002 21.6131 22.8264 21.5244 22.9997C19.3513 22.9419 17.0838 22.913 14.7222 22.913C12.7374 22.913 10.8027 22.9419 8.91782 22.9997C8.8291 22.7013 8.8291 22.4752 8.91782 22.3211C11.4679 22.1094 12.7541 21.6475 12.7763 20.9353C12.8871 18.5485 12.9426 15.4928 12.9426 11.7683C12.9426 8.87147 12.8871 5.82545 12.7763 2.63025ZM36.4428 12.9521C36.1434 12.673 35.7331 12.4949 35.2121 12.418C35.7554 11.802 36.6535 11.4941 37.9063 11.4941C38.494 11.4941 38.9707 11.6721 39.3366 12.0282C39.7136 12.3843 39.9021 12.9473 39.9021 13.7172V15.2907C36.5647 16.0318 34.3472 16.7536 33.2496 17.4562C32.1519 18.1587 31.6031 19.2174 31.6031 20.6321C31.6031 20.969 31.6585 21.301 31.7694 21.6282C31.8802 21.9554 32.0688 22.3067 32.3349 22.6821C32.612 23.0574 33.0444 23.3558 33.6321 23.5771C34.2308 23.808 34.9515 23.9236 35.7942 23.9236C37.7234 23.9236 39.2867 23.5482 40.4842 22.7976C40.961 23.4039 41.6651 23.707 42.5964 23.707C43.3504 23.707 44.0101 23.6397 44.5756 23.5049C45.141 23.3702 45.6344 23.1488 46.0557 22.8408C46.477 22.5329 46.7986 22.2586 47.0204 22.018C47.2532 21.7677 47.5415 21.4165 47.8852 20.9642L48.4174 20.1702C48.0626 19.4773 47.4306 19.1019 46.5214 19.0441L45.457 19.073V14.0204C45.457 12.2784 45.0246 11.0417 44.1598 10.3103C43.306 9.56921 41.8203 9.19869 39.7025 9.19869C37.4739 9.19869 35.6666 9.5885 34.2807 10.368C32.9058 11.1476 32.2184 12.1677 32.2184 13.4285C32.2184 14.1696 32.4845 14.7422 33.0167 15.1464C33.5489 15.5506 34.1421 15.7527 34.7963 15.7527C35.4283 15.7527 35.9383 15.5891 36.3264 15.2618C36.7144 14.925 36.9085 14.5016 36.9085 13.9915C36.9085 13.5681 36.7533 13.2215 36.4428 12.9521ZM40.584 19.6649V16.6477C38.4552 17.0423 37.0137 17.4947 36.2598 18.0048C35.5169 18.5148 35.1455 19.1645 35.1455 19.9536C35.1455 20.4445 35.3451 20.8246 35.7443 21.0941C36.1545 21.3635 36.6811 21.4983 37.3242 21.4983C38.433 21.4983 39.5196 20.8871 40.584 19.6649ZM39.9021 17.7161V19.4773C39.2258 20.1894 38.5938 20.6369 38.0061 20.8198C37.6624 20.6562 37.4905 20.3675 37.4905 19.9536C37.4905 18.972 38.2944 18.2261 39.9021 17.7161ZM33.9813 13.7461C34.1365 14.2369 34.4082 14.4824 34.7963 14.4824C34.9515 14.7422 34.9515 14.9683 34.7963 15.1608C34.2973 15.1608 33.8538 15.0117 33.4658 14.7133C33.0777 14.4053 32.8837 13.9771 32.8837 13.4285C32.8837 12.3602 33.438 11.4893 34.5468 10.8155C35.6666 10.1322 36.9861 9.79058 38.5051 9.79058C40.1904 9.79058 41.3767 10.113 42.0642 10.7578C42.7628 11.393 43.112 12.4805 43.112 14.0204V20.0114C43.112 20.5503 43.3392 20.8294 43.7939 20.8486C44.4259 20.8679 45.0467 20.4733 45.6566 19.6649C46.0669 19.7034 46.344 19.8574 46.4882 20.1269C46.3884 20.2327 46.2332 20.43 46.0225 20.7187C45.8118 20.9979 45.6511 21.2048 45.5402 21.3395C45.4404 21.4646 45.1909 21.7244 44.7918 22.1191C44.4037 22.5136 44.0156 22.7783 43.6276 22.913C43.2394 23.0478 42.8958 23.1151 42.5964 23.1151C41.3989 23.1151 40.7281 22.4078 40.584 20.993C40.5618 21.0123 40.4177 21.1325 40.1515 21.3539C39.8966 21.5657 39.7136 21.7148 39.6027 21.8015C39.4919 21.8881 39.1869 22.095 38.688 22.4222C38.2002 22.7398 37.7234 22.9708 37.2577 23.1151C36.8032 23.2595 36.3152 23.3317 35.7942 23.3317C34.4747 23.3317 33.56 23.0478 33.05 22.48C32.5399 21.9025 32.285 21.2866 32.285 20.6321C32.285 19.3906 32.8504 18.4474 33.9813 17.8026C35.1123 17.1482 37.3131 16.4552 40.584 15.7238V13.7172C40.584 12.7548 40.3677 12.033 39.9353 11.5518C39.5029 11.0609 38.9264 10.8155 38.2057 10.8155C36.6867 10.8155 35.5502 11.1042 34.7963 11.6817C34.0312 12.2688 33.7595 12.9569 33.9813 13.7461ZM62.1384 11.5374H55.6022V19.2463C55.6022 20.7669 56.5668 21.5272 58.496 21.5272C59.4717 21.5272 60.4807 21.1229 61.5229 20.3145C61.7891 20.3338 61.972 20.4493 62.0718 20.661C61.595 21.4117 60.8743 22.0468 59.9097 22.5665C58.9451 23.0767 57.8918 23.3317 56.7497 23.3317C54.0665 23.3317 52.725 21.9218 52.725 19.1019V11.5374H50.6959C50.6183 11.2968 50.6183 11.0754 50.6959 10.8733C51.3279 10.5653 51.8102 10.3151 52.1429 10.1226C52.4865 9.92052 52.9079 9.57402 53.4069 9.08323C53.9058 8.58277 54.3603 8.00048 54.7706 7.33643C55.0478 7.23057 55.325 7.23057 55.6022 7.33643V10.4979H62.1384C62.2935 10.8155 62.2935 11.162 62.1384 11.5374ZM62.8202 20.6899C62.5209 20.1028 62.0219 19.7708 61.3234 19.6937C60.5029 20.3579 59.76 20.7524 59.0947 20.8775C58.3297 20.7139 57.9472 20.1702 57.9472 19.2463V12.1148H62.787C63.1417 11.3545 63.1417 10.6183 62.787 9.90603H57.9472V6.91779C56.5613 6.50395 55.3472 6.4847 54.3049 6.86004C53.8947 7.55301 53.4235 8.14483 52.8913 8.63569C52.3591 9.12655 51.9155 9.48258 51.5607 9.70395C51.2059 9.91572 50.6903 10.19 50.014 10.5268C49.8477 11.0754 49.8477 11.6047 50.014 12.1148H52.0597V19.1019C52.0597 22.3163 53.6231 23.9236 56.7497 23.9236C58.0248 23.9236 59.2112 23.6108 60.3088 22.9852C61.4066 22.3693 62.2437 21.6042 62.8202 20.6899ZM77.2396 11.5374H70.7034V19.2463C70.7034 20.7669 71.6681 21.5272 73.5974 21.5272C74.5731 21.5272 75.582 21.1229 76.6243 20.3145C76.8904 20.3338 77.0733 20.4493 77.1731 20.661C76.6963 21.4117 75.9757 22.0468 75.011 22.5665C74.0464 23.0767 72.9931 23.3317 71.8511 23.3317C69.1679 23.3317 67.8262 21.9218 67.8262 19.1019V11.5374H65.7972C65.7196 11.2968 65.7196 11.0754 65.7972 10.8733C66.4292 10.5653 66.9115 10.3151 67.2442 10.1226C67.5879 9.92052 68.0092 9.57402 68.5081 9.08323C69.0071 8.58277 69.4617 8.00048 69.8719 7.33643C70.1491 7.23057 70.4263 7.23057 70.7034 7.33643V10.4979H77.2396C77.3948 10.8155 77.3948 11.162 77.2396 11.5374ZM77.9215 20.6899C77.6221 20.1028 77.1232 19.7708 76.4247 19.6937C75.6042 20.3579 74.8614 20.7524 74.1961 20.8775C73.4311 20.7139 73.0486 20.1702 73.0486 19.2463V12.1148H77.8883C78.2431 11.3545 78.2431 10.6183 77.8883 9.90603H73.0486V6.91779C71.6626 6.50395 70.4485 6.4847 69.4062 6.86004C68.996 7.55301 68.5248 8.14483 67.9926 8.63569C67.4604 9.12655 67.0168 9.48258 66.6621 9.70395C66.3073 9.91572 65.7917 10.19 65.1154 10.5268C64.949 11.0754 64.949 11.6047 65.1154 12.1148H67.161V19.1019C67.161 22.3163 68.7243 23.9236 71.8511 23.9236C73.1261 23.9236 74.3125 23.6108 75.4102 22.9852C76.5079 22.3693 77.3449 21.6042 77.9215 20.6899ZM91.2268 12.1581C90.5618 11.2053 89.6574 10.7289 88.5155 10.7289C87.8837 10.7289 87.3072 10.8492 86.7861 11.0898C86.276 11.3208 85.8383 11.6769 85.4722 12.1581C85.1174 12.6297 84.8402 13.236 84.6406 13.9771C84.4411 14.7085 84.3413 15.5698 84.3413 16.5611C84.3413 17.562 84.4411 18.4282 84.6406 19.1597C84.8402 19.8814 85.1174 20.4829 85.4722 20.9642C85.8383 21.4453 86.276 21.8015 86.7861 22.0324C87.3072 22.2634 87.8837 22.3789 88.5155 22.3789C89.6574 22.3789 90.5618 21.9073 91.2268 20.9642C91.9029 20.021 92.241 18.5533 92.241 16.5611C92.241 14.5689 91.9029 13.1013 91.2268 12.1581ZM91.2932 22.8264C90.4724 23.1632 89.5467 23.3317 88.5155 23.3317C87.4179 23.3317 86.4259 23.1681 85.5386 22.8408C84.6517 22.504 83.8977 22.0372 83.2769 21.4405C82.667 20.8342 82.1958 20.1172 81.8632 19.2896C81.5305 18.4619 81.3642 17.5524 81.3642 16.5611C81.3642 15.5795 81.5305 14.6748 81.8632 13.8472C82.1958 13.0099 82.667 12.2928 83.2769 11.6961C83.8977 11.0994 84.6517 10.6327 85.5386 10.2959C86.4259 9.95903 87.4179 9.79058 88.5155 9.79058C89.5467 9.79058 90.4724 9.95903 91.2932 10.2959C92.1133 10.6327 92.8124 11.1042 93.3888 11.7106C93.9764 12.3072 94.4252 13.0195 94.736 13.8472C95.0459 14.6748 95.2018 15.5795 95.2018 16.5611C95.2018 17.5428 95.0459 18.4474 94.736 19.2751C94.4252 20.1028 93.9764 20.8198 93.3888 21.4261C92.8124 22.0228 92.1133 22.4896 91.2932 22.8264ZM92.6736 9.73285C91.6313 9.37674 90.4392 9.19869 89.098 9.19869C87.7671 9.19869 86.5809 9.37674 85.5386 9.73285C84.4965 10.0889 83.615 10.5942 82.8944 11.2487C82.1736 11.8934 81.6248 12.6682 81.2478 13.5729C80.8709 14.4775 80.6823 15.4736 80.6823 16.5611C80.6823 17.6486 80.8709 18.6448 81.2478 19.5494C81.6248 20.4445 82.1681 21.2192 82.8777 21.8737C83.5984 22.5184 84.4798 23.0189 85.5224 23.375C86.5758 23.7407 87.7671 23.9236 89.098 23.9236C90.4392 23.9236 91.6373 23.7407 92.6906 23.375C93.7439 23.0189 94.6253 22.5184 95.3346 21.8737C96.055 21.2192 96.6042 20.4396 96.9814 19.535C97.3578 18.6303 97.5469 17.639 97.5469 16.5611C97.5469 15.4736 97.3578 14.4775 96.9814 13.5729C96.6042 12.6682 96.055 11.8934 95.3346 11.2487C94.6142 10.5942 93.7269 10.0889 92.6736 9.73285ZM89.098 21.7292C87.4903 21.3924 86.6865 19.6697 86.6865 16.5611C86.6865 13.4814 87.4903 11.7539 89.098 11.3785C90.7389 11.7539 91.5589 13.4814 91.5589 16.5611C91.5589 19.6697 90.7389 21.3924 89.098 21.7292ZM112.581 3.39537C113.258 3.09702 114.023 2.91897 114.876 2.86123C115.73 2.91897 116.495 3.09702 117.172 3.39537C117.859 3.69372 118.458 4.07868 118.968 4.55026C119.489 5.02184 119.927 5.5656 120.282 6.18154C120.648 6.78786 120.942 7.43749 121.163 8.13042C121.396 8.81375 121.563 9.52109 121.662 10.2525C121.773 10.9744 121.828 11.6865 121.828 12.3891C121.828 13.082 121.773 13.7942 121.662 14.5256C121.563 15.2474 121.396 15.95 121.163 16.6333C120.942 17.307 120.648 17.9518 120.282 18.5678C119.927 19.1741 119.489 19.713 118.968 20.1846C118.458 20.6466 117.864 21.0267 117.188 21.3251C116.512 21.6138 115.741 21.787 114.876 21.8448C114.034 21.787 113.275 21.6138 112.598 21.3251C111.933 21.0363 111.34 20.661 110.819 20.199C110.309 19.7275 109.87 19.1885 109.505 18.5822C109.15 17.9759 108.856 17.331 108.623 16.6477C108.39 15.9645 108.218 15.2618 108.108 14.5401C108.008 13.8086 107.958 13.0916 107.958 12.3891C107.958 11.6865 108.008 10.9744 108.108 10.2525C108.218 9.52109 108.385 8.81375 108.607 8.13042C108.839 7.44709 109.133 6.80229 109.488 6.19598C109.854 5.58004 110.292 5.03627 110.802 4.56469C111.312 4.08349 111.905 3.69372 112.581 3.39537ZM111.351 22.0468C112.215 22.3259 113.197 22.4655 114.295 22.4655C115.315 22.4655 116.223 22.3259 117.022 22.0468C117.82 21.7581 118.524 21.3684 119.134 20.8775C119.744 20.3867 120.26 19.8141 120.681 19.1597C121.113 18.4955 121.463 17.793 121.729 17.0519C122.006 16.3013 122.205 15.5313 122.327 14.7422C122.449 13.9434 122.51 13.159 122.51 12.3891C122.51 11.6192 122.444 10.8348 122.311 10.036C122.188 9.22759 121.989 8.44802 121.712 7.69736C121.446 6.94666 121.097 6.23929 120.664 5.57522C120.232 4.91116 119.71 4.33371 119.101 3.84289C118.502 3.34244 117.804 2.95266 117.005 2.67356C116.207 2.38483 115.304 2.24047 114.295 2.24047C113.197 2.24047 112.21 2.38483 111.334 2.67356C110.469 2.96228 109.71 3.35206 109.055 3.84289C108.401 4.33371 107.842 4.91116 107.376 5.57522C106.91 6.23929 106.533 6.94666 106.245 7.69736C105.957 8.44802 105.746 9.22759 105.613 10.036C105.48 10.8348 105.413 11.6192 105.413 12.3891C105.413 13.159 105.48 13.9482 105.613 14.7566C105.746 15.5554 105.957 16.3302 106.245 17.0808C106.544 17.8219 106.921 18.5196 107.376 19.1741C107.842 19.8285 108.401 20.4012 109.055 20.892C109.721 21.3732 110.486 21.7581 111.351 22.0468ZM116.773 23.3028C115.885 23.4375 115.059 23.5049 114.295 23.5049C113.463 23.5049 112.575 23.4327 111.634 23.2884C110.691 23.144 109.754 22.9034 108.823 22.5665C107.891 22.2297 106.993 21.787 106.129 21.2385C105.274 20.6803 104.521 19.9921 103.867 19.1741C103.212 18.3464 102.686 17.3744 102.286 16.258C101.898 15.1416 101.705 13.852 101.705 12.3891C101.705 10.8781 101.909 9.5548 102.32 8.41912C102.73 7.27388 103.273 6.28741 103.95 5.45973C104.626 4.63206 105.402 3.94394 106.278 3.39537C107.154 2.84679 108.057 2.4137 108.989 2.09611C109.92 1.76889 110.846 1.54273 111.767 1.41762C112.687 1.28288 113.529 1.21551 114.295 1.21551C115.082 1.21551 115.919 1.2925 116.806 1.44649C117.704 1.59085 118.597 1.83627 119.483 2.18273C120.37 2.51957 121.218 2.96709 122.028 3.52529C122.837 4.08349 123.553 4.77642 124.173 5.60409C124.794 6.43177 125.288 7.40859 125.653 8.53465C126.03 9.65103 126.22 10.9359 126.22 12.3891C126.22 13.8712 126.03 15.1801 125.653 16.3157C125.277 17.4418 124.772 18.4186 124.14 19.2463C123.519 20.0643 122.799 20.7476 121.978 21.2962C121.158 21.8448 120.304 22.2826 119.417 22.6098C118.541 22.9371 117.659 23.1681 116.773 23.3028ZM108.956 23.3028C110.674 23.8706 112.648 24.1545 114.876 24.1545C116.972 24.1545 118.873 23.8947 120.581 23.375C122.3 22.8649 123.763 22.1094 124.972 21.1085C126.191 20.1076 127.128 18.8806 127.782 17.4273C128.448 15.9645 128.78 14.285 128.78 12.3891C128.78 10.5027 128.448 8.82816 127.782 7.3653C127.128 5.90244 126.191 4.67537 124.972 3.68409C123.763 2.68318 122.3 1.92288 120.581 1.40318C118.873 0.883475 116.972 0.623627 114.876 0.623627C112.648 0.623627 110.674 0.907534 108.956 1.47536C107.237 2.03356 105.791 2.82754 104.615 3.85732C103.439 4.87748 102.547 6.11418 101.937 7.56742C101.328 9.01102 101.023 10.6183 101.023 12.3891C101.023 14.16 101.328 15.7719 101.937 17.2252C102.547 18.6688 103.439 19.9055 104.615 20.9353C105.791 21.9554 107.237 22.7446 108.956 23.3028ZM96.9678 29.8886C97.0675 29.6768 97.4004 29.5614 97.9658 29.5421C98.2426 28.9262 98.2426 28.3535 97.9658 27.8242H86.9394C86.6618 28.3535 86.6618 28.9262 86.9394 29.5421C88.0481 29.6384 88.8792 29.7875 89.4335 29.9896C89.9989 30.1821 90.3932 30.5142 90.6146 30.9857L99.9116 50.5323H101.575L105.916 40.5569L110.373 50.5323H112.069L120.584 30.9857C120.795 30.5334 121.15 30.1966 121.649 29.9752C122.125 29.7827 123.201 29.6384 124.875 29.5421C125.153 28.9262 125.153 28.3535 124.875 27.8242H114.996C114.73 28.3535 114.73 28.9262 114.996 29.5421C116.116 29.6191 116.859 29.749 117.225 29.9319C117.602 30.1051 117.68 30.4564 117.458 30.9857L112.784 41.8417L108.027 30.9857C107.839 30.5526 107.928 30.2158 108.294 29.9752C108.659 29.7249 109.441 29.5806 110.639 29.5421C110.916 28.9262 110.916 28.3535 110.639 27.8242H98.8974C98.6198 28.3535 98.6198 28.9262 98.8974 29.5421C99.6621 29.5806 100.222 29.7009 100.577 29.903C100.932 30.0955 101.231 30.4468 101.475 30.9568L104.335 37.1933L102.307 41.9283L97.1841 30.9857C96.9397 30.4564 96.8682 30.0907 96.9678 29.8886ZM87.521 28.3006H97.4004C97.5332 28.4931 97.5332 28.7193 97.4004 28.9791C95.9477 29.0753 94.994 29.2341 94.5393 29.4555C94.0854 29.6672 94.0462 30.1003 94.4235 30.7548L101.409 45.6817L105.051 37.1933L102.124 30.7548C101.857 30.1388 101.525 29.7057 101.126 29.4555C100.726 29.1956 100.178 29.0369 99.479 28.9791C99.3351 28.7193 99.3351 28.4931 99.479 28.3006H109.924C110.068 28.4931 110.068 28.7193 109.924 28.9791C108.161 29.0561 106.892 29.2438 106.115 29.5421C105.339 29.8308 105.079 30.235 105.333 30.7548L111.903 45.6817L118.373 30.5671C118.583 30.1147 118.506 29.7634 118.139 29.5132C117.84 29.2919 117.031 29.1138 115.712 28.9791C115.578 28.7193 115.578 28.4931 115.712 28.3006H124.161C124.304 28.4931 124.304 28.7193 124.161 28.9791C122.962 29.0561 122.037 29.2052 121.383 29.4266C120.74 29.6384 120.296 30.0185 120.052 30.5671L111.603 49.9404H110.855L105.832 38.94L101.109 49.9404H100.36L91.2302 30.7548C90.7534 29.7442 89.5169 29.1523 87.521 28.9791C87.3771 28.7193 87.3771 28.4931 87.521 28.3006ZM136.55 38.7668C135.885 37.814 134.982 37.3376 133.84 37.3376C133.208 37.3376 132.632 37.4579 132.11 37.6985C131.6 37.9295 131.162 38.2856 130.796 38.7668C130.441 39.2383 130.164 39.8447 129.965 40.5858C129.765 41.3172 129.665 42.1785 129.665 43.1698C129.665 44.1707 129.765 45.0369 129.965 45.7683C130.164 46.4901 130.441 47.0916 130.796 47.5729C131.162 48.054 131.6 48.4101 132.11 48.6411C132.632 48.8721 133.208 48.9876 133.84 48.9876C134.982 48.9876 135.885 48.516 136.55 47.5729C137.227 46.6297 137.565 45.162 137.565 43.1698C137.565 41.1776 137.227 39.71 136.55 38.7668ZM136.618 49.4351C135.797 49.7719 134.871 49.9404 133.84 49.9404C132.742 49.9404 131.749 49.7768 130.863 49.4495C129.976 49.1127 129.222 48.6459 128.6 48.0492C127.991 47.4429 127.52 46.7259 127.187 45.8983C126.855 45.0706 126.688 44.1611 126.688 43.1698C126.688 42.1881 126.855 41.2835 127.187 40.4558C127.52 39.6186 127.991 38.9015 128.6 38.3048C129.222 37.7081 129.976 37.2414 130.863 36.9045C131.749 36.5677 132.742 36.3993 133.84 36.3993C134.871 36.3993 135.797 36.5677 136.618 36.9045C137.438 37.2414 138.136 37.7129 138.712 38.3193C139.301 38.9159 139.749 39.6282 140.059 40.4558C140.37 41.2835 140.525 42.1881 140.525 43.1698C140.525 44.1515 140.37 45.0561 140.059 45.8838C139.749 46.7115 139.301 47.4285 138.712 48.0348C138.136 48.6315 137.438 49.0983 136.618 49.4351ZM137.998 36.3415C136.956 35.9854 135.763 35.8074 134.421 35.8074C133.091 35.8074 131.905 35.9854 130.863 36.3415C129.821 36.6976 128.939 37.2029 128.218 37.8574C127.498 38.5021 126.948 39.2769 126.572 40.1816C126.195 41.0862 126.007 42.0823 126.007 43.1698C126.007 44.2573 126.195 45.2535 126.572 46.1581C126.948 47.0532 127.492 47.8279 128.202 48.4824C128.922 49.1271 129.804 49.6276 130.846 49.9837C131.899 50.3494 133.091 50.5323 134.421 50.5323C135.763 50.5323 136.961 50.3494 138.014 49.9837C139.067 49.6276 139.949 49.1271 140.659 48.4824C141.379 47.8279 141.928 47.0483 142.305 46.1437C142.682 45.239 142.87 44.2477 142.87 43.1698C142.87 42.0823 142.682 41.0862 142.305 40.1816C141.928 39.2769 141.379 38.5021 140.659 37.8574C139.938 37.2029 139.051 36.6976 137.998 36.3415ZM134.421 48.3379C132.814 48.0011 132.01 46.2784 132.01 43.1698C132.01 40.0901 132.814 38.3626 134.421 37.9872C136.062 38.3626 136.883 40.0901 136.883 43.1698C136.883 46.2784 136.062 48.0011 134.421 48.3379ZM153.631 38.8101C152.766 39.6474 152.195 40.5088 151.918 41.3942C151.918 43.5404 151.968 45.5903 152.068 47.544C152.09 48.2562 153.415 48.7181 156.043 48.9298C156.198 49.1897 156.198 49.4159 156.043 49.6084C152.617 49.4928 149.451 49.4928 146.546 49.6084C146.379 49.4159 146.379 49.1897 146.546 48.9298C148.409 48.7181 149.351 48.2562 149.373 47.544C149.484 45.3785 149.495 42.5009 149.407 38.9111C148.764 38.5743 147.693 38.377 146.197 38.3193C146.13 38.0979 146.13 37.8718 146.197 37.6408C148.148 37.4579 149.866 37.0633 151.352 36.457C151.641 36.5532 151.829 36.6784 151.918 36.8323V39.3154C152.561 38.5743 153.315 37.9055 154.179 37.3088C155.056 36.7024 155.926 36.3993 156.791 36.3993C157.456 36.3993 157.994 36.5725 158.404 36.919C158.825 37.2558 159.037 37.7226 159.037 38.3193C159.037 38.8871 158.842 39.3298 158.454 39.6474C158.077 39.965 157.589 40.1238 156.99 40.1238C156.835 39.8639 156.835 39.6378 156.99 39.4453C157.567 39.301 157.855 38.9641 157.855 38.4348C157.855 37.8477 157.328 37.5542 156.275 37.5542C155.378 37.5542 154.496 37.9728 153.631 38.8101ZM156.658 48.3957C155.183 48.184 154.435 47.8905 154.413 47.5151C154.324 45.5999 154.28 43.5981 154.28 41.5097C154.391 41.0766 154.673 40.5954 155.128 40.066C155.627 40.4992 156.248 40.7156 156.99 40.7156C157.789 40.7156 158.443 40.504 158.953 40.0805C159.463 39.657 159.718 39.07 159.718 38.3193C159.718 37.5301 159.446 36.9142 158.903 36.4715C158.36 36.0288 157.656 35.8074 156.791 35.8074C156.049 35.8074 155.211 36.1009 154.28 36.688C153.681 36.1779 152.783 35.8651 151.586 35.7497C149.512 36.5196 147.549 36.9527 145.698 37.0489C145.443 37.6937 145.443 38.3048 145.698 38.8823C146.984 38.94 147.993 39.0652 148.725 39.2576C148.835 42.0198 148.824 44.7722 148.691 47.5151C148.669 47.8905 147.727 48.184 145.864 48.3957C145.498 48.9924 145.52 49.5746 145.931 50.1424C148.337 50.0655 151.891 50.0943 156.592 50.2291C157.001 49.6421 157.024 49.0309 156.658 48.3957ZM168.383 47.4718C168.405 48.184 169.736 48.6459 172.375 48.8577C172.486 49.0983 172.486 49.3341 172.375 49.565C168.605 49.488 165.434 49.488 162.862 49.565C162.751 49.3341 162.751 49.0983 162.862 48.8577C164.724 48.6459 165.667 48.184 165.689 47.4718C165.799 43.0832 165.81 37.2703 165.722 30.0329C165.068 29.7057 164.114 29.5084 162.862 29.441C162.795 29.2293 162.795 29.0032 162.862 28.7626C164.525 28.6085 166.126 28.214 167.668 27.5788C167.967 27.6846 168.162 27.8146 168.25 27.9685C168.228 35.6389 168.272 42.14 168.383 47.4718ZM172.974 50.0703C173.162 49.5025 173.162 48.9202 172.974 48.3235C171.499 48.1696 170.75 47.876 170.728 47.4429C170.595 42.9389 170.551 36.3993 170.595 27.8242C170.008 27.266 169.109 26.9484 167.901 26.8714C165.816 27.6606 163.931 28.0937 162.246 28.1707C162.002 28.8251 162.002 29.4362 162.246 30.0041C163.366 30.0618 164.297 30.1918 165.04 30.3938C165.151 36.1106 165.14 41.7936 165.007 47.4429C164.984 47.876 164.065 48.1696 162.246 48.3235C162.069 48.9202 162.069 49.5025 162.246 50.0703C165.129 49.9933 168.705 49.9933 172.974 50.0703ZM180.641 46.6634C181.328 47.5873 182.331 48.0492 183.651 48.0492C184.76 48.0492 185.93 47.5344 187.16 46.5046C187.182 45.5614 187.193 43.7762 187.193 41.1488V39.0555C186.417 37.9103 185.247 37.3376 183.684 37.3376C183.251 37.3376 182.825 37.4194 182.403 37.5831C181.982 37.737 181.549 38.0065 181.106 38.3915C180.663 38.7764 180.303 39.3779 180.025 40.196C179.759 41.014 179.626 41.9957 179.626 43.141C179.626 44.5557 179.964 45.7298 180.641 46.6634ZM194.445 50.2002C194.854 49.6132 194.877 49.002 194.511 48.3668C192.97 48.2129 192.188 47.929 192.166 47.5151C192.067 45.3689 192.016 38.8053 192.016 27.8242C191.429 27.266 190.536 26.9484 189.339 26.8714C186.955 27.6221 184.987 28.0552 183.435 28.1707C183.191 28.8251 183.191 29.4362 183.435 30.0041C184.731 30.0618 185.746 30.1918 186.478 30.3938C186.478 32.5208 186.489 34.3445 186.511 35.8651C186.012 35.8267 185.259 35.8074 184.249 35.8074C182.775 35.8074 181.461 36.0528 180.308 36.5436C179.166 37.0345 178.273 37.6745 177.631 38.4637C176.987 39.2528 176.505 40.0901 176.183 40.9755C175.862 41.8609 175.701 42.7704 175.701 43.704C175.701 45.8117 176.283 47.4766 177.447 48.6989C178.623 49.9212 180.153 50.5323 182.037 50.5323C183.945 50.5323 185.436 50.2243 186.511 49.6084C186.622 49.8489 186.882 50.0462 187.293 50.2002C189.222 50.1232 191.606 50.1232 194.445 50.2002ZM184.333 37.9872C185.23 38.1124 185.957 38.5166 186.511 39.1999V41.1488C186.511 43.6125 186.5 45.3208 186.478 46.2736C185.702 46.8799 184.948 47.2553 184.216 47.3996C183.307 47.236 182.625 46.7644 182.171 45.9848C181.727 45.2054 181.505 44.2573 181.505 43.141C181.505 41.4183 181.783 40.1671 182.337 39.3876C182.891 38.5984 183.556 38.1316 184.333 37.9872ZM192.599 48.7855C192.898 48.824 193.33 48.8625 193.896 48.901C194.051 49.1608 194.051 49.387 193.896 49.5795C191.9 49.5217 190.597 49.4928 189.987 49.4928C189.821 49.4928 189.627 49.4976 189.405 49.5073C189.194 49.5169 188.906 49.5313 188.54 49.5506C188.185 49.5698 187.825 49.5891 187.46 49.6084C187.304 49.5313 187.165 49.3822 187.043 49.1608C187.088 48.9298 187.11 48.4101 187.11 47.6017C185.303 49.1608 183.523 49.9404 181.772 49.9404C180.385 49.9404 179.199 49.3822 178.212 48.2658C177.225 47.1494 176.732 45.6288 176.732 43.704C176.732 42.8475 176.871 42.0101 177.148 41.1921C177.436 40.374 177.863 39.5993 178.428 38.8678C178.994 38.1268 179.776 37.5301 180.774 37.0778C181.783 36.6255 182.942 36.3993 184.249 36.3993C185.07 36.3993 186.051 36.5532 187.193 36.8612C187.171 35.0326 187.16 32.7565 187.16 30.0329C186.517 29.7057 185.447 29.5084 183.95 29.441C183.883 29.2293 183.883 29.0032 183.95 28.7626C185.901 28.5893 187.615 28.1947 189.09 27.5788C189.366 27.6654 189.56 27.7954 189.671 27.9685C189.671 38.8726 189.715 45.3978 189.804 47.544C189.804 47.7942 189.932 48.0059 190.187 48.1792C190.453 48.3427 190.846 48.4775 191.367 48.5834C191.9 48.6796 192.31 48.747 192.599 48.7855Z" fill="white"/>
</g>
<defs>
<clipPath id="clip0_1_5">
<rect width="195" height="51" fill="white"/>
</clipPath>
</defs>
</svg>
