<svg width="110" height="110" viewBox="0 0 110 110" fill="none" xmlns="http://www.w3.org/2000/svg">
<g clip-path="url(#clip0_2_17)">
<path d="M110 82.954C109.999 81.8242 109.688 80.7163 109.103 79.75C108.518 78.7836 107.68 77.9956 106.679 77.471C107.293 76.8941 107.782 76.1978 108.117 75.4247C108.451 74.6516 108.624 73.8183 108.624 72.976C108.622 71.3341 107.969 69.7599 106.808 68.5989C105.647 67.4379 104.073 66.7848 102.431 66.783H96.931C96.0707 66.7835 95.2199 66.9639 94.4334 67.3127C93.6469 67.6614 92.9421 68.1707 92.364 68.808C91.546 64.562 88.751 60.934 79.72 60.934C74.257 60.934 69.686 63.508 65.653 65.78C62.568 67.517 59.903 69.019 57.531 69.019C51.496 69.019 41.967 69.112 41.871 69.113C41.506 69.1167 41.1574 69.2652 40.9018 69.5258C40.6462 69.7865 40.5046 70.1379 40.508 70.503C40.5117 70.8655 40.6583 71.2119 40.916 71.4669C41.1736 71.7219 41.5215 71.865 41.884 71.865H41.898C41.998 71.865 51.509 71.771 57.531 71.771C60.625 71.771 63.724 70.026 67.004 68.178C70.742 66.072 74.979 63.687 79.721 63.687C88.921 63.687 89.782 67.406 89.921 71.899C89.937 72.422 89.96 72.993 89.985 73.599C90.112 76.684 90.41 83.91 88.603 84.41C88.1318 84.5753 87.6303 84.6359 87.1333 84.5877C86.6363 84.5396 86.1557 84.3837 85.725 84.131C83.344 82.631 82.479 77.773 82.063 75.439C81.9867 74.7443 81.8213 74.0624 81.571 73.41C81.4468 73.0955 81.2153 72.835 80.9176 72.6747C80.6198 72.5144 80.275 72.4645 79.944 72.534C79.5876 72.6368 79.2786 72.8615 79.071 73.1689C78.8634 73.4764 78.7703 73.8469 78.808 74.216C78.754 75.569 78.608 79.165 73.182 80.716C70.112 81.595 67.442 75.978 67.416 75.923C67.2651 75.5909 66.9886 75.3323 66.6471 75.204C66.3056 75.0758 65.9272 75.0883 65.595 75.239C65.2626 75.3901 65.0038 75.667 64.8755 76.0088C64.7473 76.3507 64.76 76.7295 64.911 77.062C65.056 77.383 68.541 84.907 73.939 83.362C76.3933 82.765 78.5573 81.319 80.048 79.28C80.735 81.98 81.928 84.991 84.258 86.46C85.1845 87.0479 86.2608 87.3563 87.358 87.348C88.0285 87.3428 88.6952 87.2469 89.34 87.063C89.8765 86.8989 90.3703 86.6185 90.7861 86.2419C91.202 85.8653 91.5297 85.4016 91.746 84.884C92.0006 85.6577 92.4057 86.3734 92.938 86.99C91.8735 87.4891 90.9729 88.2805 90.3412 89.2721C89.7094 90.2636 89.3726 91.4143 89.37 92.59C89.3708 93.9022 89.7913 95.1798 90.57 96.236C89.2437 96.581 88.0691 97.3558 87.2298 98.4392C86.3904 99.5226 85.9337 100.854 85.931 102.224C85.93 103.449 86.2946 104.647 86.978 105.664H79.036C75.377 105.664 71.393 103.742 67.536 101.884C63.799 100.084 60.268 98.379 57.012 98.379H1.37602C1.01109 98.379 0.661096 98.5239 0.403046 98.782C0.144996 99.04 2.47955e-05 99.39 2.47955e-05 99.755C0.000289664 100.12 0.145345 100.47 0.403337 100.728C0.66133 100.986 1.01117 101.131 1.37602 101.131H57.014C59.641 101.131 62.896 102.701 66.342 104.363C70.473 106.356 74.742 108.417 79.033 108.417H98.302C99.9439 108.415 101.518 107.762 102.679 106.601C103.84 105.44 104.493 103.866 104.495 102.224C104.494 100.912 104.074 99.6342 103.295 98.578C104.621 98.2328 105.795 97.4581 106.634 96.3749C107.473 95.2917 107.93 93.9611 107.933 92.591C107.934 91.11 107.402 89.6782 106.433 88.558C107.498 88.0584 108.399 87.2663 109.03 86.274C109.662 85.2817 109.998 84.1302 110 82.954ZM96.926 69.536H102.426C103.338 69.537 104.212 69.8998 104.857 70.5447C105.502 71.1896 105.865 72.0639 105.866 72.976C105.865 73.8879 105.502 74.7621 104.857 75.407C104.212 76.0518 103.338 76.4146 102.426 76.416H96.926C96.0141 76.4146 95.1399 76.0518 94.495 75.407C93.8502 74.7621 93.4873 73.8879 93.486 72.976C93.4873 72.064 93.8502 71.1898 94.495 70.545C95.1399 69.9001 96.0141 69.5373 96.926 69.536ZM92.84 77.618C93.0902 77.839 93.3578 78.0396 93.64 78.218C93.3427 78.4674 93.0692 78.7439 92.823 79.044C92.835 78.57 92.841 78.095 92.84 77.618ZM98.302 105.661H92.114C91.2021 105.66 90.3279 105.297 89.683 104.652C89.0382 104.007 88.6753 103.133 88.674 102.221C88.6753 101.309 89.0382 100.435 89.683 99.79C90.3279 99.1451 91.2021 98.7823 92.114 98.781H98.307C99.219 98.782 100.093 99.1448 100.738 99.7897C101.383 100.435 101.746 101.309 101.747 102.221C101.746 103.134 101.382 104.009 100.736 104.654C100.09 105.299 99.2148 105.661 98.302 105.661ZM101.742 96.028H95.55C94.6381 96.0266 93.7639 95.6638 93.119 95.019C92.4742 94.3741 92.1113 93.4999 92.11 92.588C92.1113 91.676 92.4742 90.8018 93.119 90.157C93.7639 89.5121 94.6381 89.1493 95.55 89.148H101.743C102.655 89.149 103.529 89.5118 104.174 90.1567C104.819 90.8016 105.182 91.6759 105.183 92.588C105.182 93.4999 104.819 94.3741 104.174 95.019C103.529 95.6638 102.654 96.0266 101.742 96.028ZM103.806 86.395H97.614C96.7021 86.3937 95.8279 86.0308 95.183 85.386C94.5382 84.7411 94.1753 83.8669 94.174 82.955C94.1753 82.043 94.5382 81.1688 95.183 80.524C95.8279 79.8792 96.7021 79.5163 97.614 79.515H103.807C104.719 79.516 105.593 79.8788 106.238 80.5237C106.883 81.1686 107.246 82.043 107.247 82.955C107.246 83.8669 106.883 84.7411 106.238 85.386C105.593 86.0308 104.718 86.3937 103.806 86.395ZM46.563 43.731L68.463 56.22C68.6705 56.3384 68.9052 56.4007 69.144 56.401C69.3882 56.4013 69.628 56.3365 69.8389 56.2135C70.0497 56.0905 70.2241 55.9136 70.344 55.701L79.744 39.217C79.8337 39.06 79.8914 38.8869 79.9139 38.7076C79.9364 38.5282 79.9231 38.3462 79.875 38.172C79.8275 37.9976 79.7461 37.8342 79.6355 37.6912C79.5248 37.5483 79.387 37.4286 79.23 37.339L57.33 24.851C57.173 24.7613 56.9998 24.7035 56.8204 24.6808C56.641 24.6581 56.4589 24.671 56.2845 24.7187C56.1101 24.7664 55.9468 24.8481 55.8039 24.959C55.6611 25.0699 55.5415 25.2078 55.452 25.365L46.052 41.848C45.9625 42.005 45.9048 42.1781 45.8823 42.3574C45.8599 42.5367 45.873 42.7187 45.921 42.893C45.9676 43.068 46.0482 43.2322 46.1584 43.376C46.2686 43.5198 46.4061 43.6405 46.563 43.731ZM61.633 30.48L62.472 30.959L61.807 32.124L60.968 31.646L61.633 30.48ZM62.817 34.28L62.571 34.713L57.414 33.942L58.591 31.878L62.817 34.28ZM56.689 35.219L61.84 35.994L60.978 37.506L55.894 36.614L56.689 35.219ZM55.17 37.883L60.254 38.776L59.302 40.447L54.218 39.553L55.17 37.883ZM53.494 40.823L58.577 41.718L57.477 43.652L53.256 41.246L53.494 40.823ZM57.394 45.188C57.4977 45.2477 57.6153 45.2791 57.735 45.279C57.8568 45.2792 57.9764 45.2472 58.0818 45.1863C58.1871 45.1253 58.2745 45.0376 58.335 44.932L64.361 34.366C64.4507 34.207 64.4741 34.0191 64.426 33.843C64.3777 33.667 64.2615 33.5174 64.103 33.427L63.01 32.804L63.675 31.638L69.314 34.86L68.649 36.026L67.556 35.403C67.4775 35.358 67.3909 35.329 67.3012 35.3176C67.2115 35.3061 67.1204 35.3126 67.0331 35.3364C66.9459 35.3603 66.8642 35.4012 66.7928 35.4567C66.7214 35.5122 66.6617 35.5813 66.617 35.66L60.591 46.226C60.5461 46.3045 60.517 46.3911 60.5056 46.4808C60.4942 46.5705 60.5006 46.6616 60.5245 46.7489C60.5484 46.8361 60.5892 46.9178 60.6448 46.9892C60.7003 47.0606 60.7694 47.1203 60.848 47.165L61.941 47.788L61.276 48.954L55.63 45.734L56.295 44.568L57.394 45.188ZM71.353 36.018L70.689 37.183L69.85 36.705L70.514 35.539L71.353 36.018ZM63.314 50.114L62.476 49.636L63.14 48.47L63.979 48.948L63.314 50.114ZM62.131 46.314L62.613 45.47L67.695 46.363L66.351 48.72L62.131 46.314ZM68.419 45.094L63.336 44.2L64.288 42.53L69.372 43.423L68.419 45.094ZM70.096 42.153L65.012 41.26L65.812 39.866L70.962 40.641L70.096 42.153ZM71.689 39.359L66.539 38.584L67.472 36.942L71.693 39.348L71.689 39.359ZM55.103 43.89L54.439 45.056L53.6 44.577L54.265 43.411L55.103 43.89ZM68.634 53.15L64.51 50.798L65.175 49.633L66.268 50.256C66.3719 50.3152 66.4894 50.3462 66.609 50.346C66.6705 50.3459 66.7318 50.3375 66.791 50.321C66.8781 50.2973 66.9597 50.2566 67.0311 50.2014C67.1024 50.1461 67.1622 50.0773 67.207 49.999L69.372 46.199L73.233 39.429C73.3231 39.2701 73.3468 39.0822 73.299 38.906C73.2504 38.7301 73.1343 38.5806 72.976 38.49L71.883 37.867L72.548 36.702L76.672 39.053L68.634 53.15ZM57.159 27.929L60.438 29.799L59.773 30.965L58.68 30.342C58.6016 30.2969 58.515 30.2677 58.4252 30.2562C58.3355 30.2448 58.2443 30.2512 58.157 30.275C58.0698 30.2989 57.9881 30.3398 57.9167 30.3954C57.8453 30.451 57.7856 30.5202 57.741 30.599L51.714 41.165C51.6242 41.3235 51.6008 41.5112 51.649 41.687C51.6729 41.7741 51.7137 41.8557 51.7691 41.9271C51.8246 41.9985 51.8935 42.0583 51.972 42.103L53.065 42.726L52.4 43.891L49.121 42.021L57.159 27.929ZM28.696 80.895V84.285L32.772 79.742C32.894 79.6062 33.0648 79.5244 33.2471 79.5144C33.4293 79.5045 33.608 79.5673 33.744 79.689C33.8797 79.8111 33.9613 79.982 33.971 80.1642C33.9808 80.3464 33.9178 80.5251 33.796 80.661L28.955 86.056L34.749 91.85C34.813 91.9138 34.8638 91.9896 34.8985 92.0731C34.9331 92.1566 34.951 92.2461 34.951 92.3365C34.951 92.4269 34.9331 92.5164 34.8985 92.5998C34.8638 92.6833 34.813 92.7591 34.749 92.823C34.6852 92.8867 34.6094 92.9373 34.526 92.9716C34.4426 93.0059 34.3532 93.0234 34.263 93.023C34.1728 93.0234 34.0834 93.0059 34 92.9716C33.9166 92.9373 33.8408 92.8867 33.777 92.823L28.696 87.743V91.874C28.696 92.0564 28.6235 92.2314 28.4945 92.3605C28.3655 92.4895 28.1905 92.562 28.008 92.562C27.8256 92.562 27.6506 92.4895 27.5215 92.3605C27.3925 92.2314 27.32 92.0564 27.32 91.874V80.895C27.32 80.7125 27.3925 80.5375 27.5215 80.4085C27.6506 80.2794 27.8256 80.207 28.008 80.207C28.0984 80.207 28.1878 80.2248 28.2713 80.2593C28.3548 80.2939 28.4306 80.3446 28.4945 80.4085C28.5584 80.4724 28.6091 80.5482 28.6437 80.6317C28.6782 80.7152 28.696 80.8046 28.696 80.895ZM40.725 85.702C40.868 86.014 41.025 86.349 41.184 86.679L42.822 86.847C43.0035 86.8659 43.17 86.956 43.2851 87.0975C43.4002 87.2391 43.4545 87.4205 43.436 87.602C43.4187 87.7714 43.3392 87.9283 43.2128 88.0425C43.0865 88.1566 42.9223 88.2199 42.752 88.22C42.729 88.22 42.705 88.22 42.681 88.22L41.881 88.138C42.51 89.421 43.186 90.753 43.857 92.018C43.8993 92.0978 43.9255 92.1852 43.934 92.2751C43.9425 92.3651 43.9332 92.4558 43.9066 92.5422C43.8801 92.6286 43.8368 92.7089 43.7792 92.7785C43.7216 92.8481 43.6509 92.9057 43.571 92.948C43.4719 93.0007 43.3613 93.0281 43.249 93.028C43.1241 93.0281 43.0015 92.9941 42.8944 92.9298C42.7873 92.8655 42.6997 92.7733 42.641 92.663C41.659 90.811 40.875 89.271 40.241 87.97L40.036 87.942C39.4291 89.4459 38.6793 90.8882 37.797 92.249C37.7477 92.3248 37.6839 92.3902 37.6093 92.4414C37.5346 92.4925 37.4506 92.5284 37.3621 92.547C37.2735 92.5656 37.1822 92.5665 37.0933 92.5497C37.0044 92.5328 36.9197 92.4986 36.844 92.449C36.7682 92.3997 36.7028 92.3359 36.6516 92.2612C36.6005 92.1866 36.5646 92.1026 36.546 92.014C36.5274 91.9255 36.5265 91.8341 36.5433 91.7452C36.5602 91.6563 36.5944 91.5716 36.644 91.496C37.3956 90.3209 38.044 89.0829 38.582 87.796L36.37 87.57C36.2801 87.5607 36.1929 87.5339 36.1134 87.4909C36.0339 87.448 35.9636 87.3898 35.9066 87.3197C35.8496 87.2496 35.807 87.1689 35.7811 87.0823C35.7553 86.9957 35.7467 86.9049 35.756 86.815C35.7757 86.6339 35.866 86.4678 36.0074 86.3528C36.1487 86.2379 36.3297 86.1833 36.511 86.201L39.072 86.463C39.137 86.263 39.201 86.057 39.254 85.857C37.347 81.594 37.843 81.196 38.176 80.928C38.782 80.44 39.476 81.036 39.711 81.228C40.955 82.285 41.082 83.965 40.726 85.702H40.725ZM48.617 83.05C48.398 83.05 48.17 83.034 47.938 83.011L49.238 91.772C49.2513 91.8614 49.2469 91.9526 49.225 92.0403C49.203 92.128 49.164 92.2106 49.1101 92.2832C49.0563 92.3558 48.9886 92.4171 48.911 92.4636C48.8335 92.5101 48.7475 92.5408 48.658 92.554C48.6249 92.5589 48.5915 92.5616 48.558 92.562C48.3931 92.5616 48.2337 92.5021 48.1089 92.3941C47.9841 92.2862 47.9022 92.1372 47.878 91.974L46.514 82.759C45.3016 82.4497 44.1182 82.0362 42.977 81.523C42.8946 81.4859 42.8203 81.4329 42.7584 81.3671C42.6964 81.3013 42.648 81.224 42.616 81.1395C42.584 81.0549 42.5689 80.965 42.5716 80.8746C42.5744 80.7843 42.5949 80.6954 42.632 80.613C42.7075 80.4471 42.8455 80.3177 43.016 80.2531C43.1864 80.1885 43.3755 80.1938 43.542 80.268C44.4502 80.6713 45.3859 81.0094 46.342 81.28C46.3726 81.1453 46.4431 81.023 46.5442 80.929C46.6454 80.835 46.7725 80.7737 46.909 80.753C46.9985 80.7395 47.0897 80.7439 47.1775 80.7657C47.2653 80.7876 47.3478 80.8266 47.4205 80.8805C47.4932 80.9344 47.5545 81.0021 47.6009 81.0798C47.6473 81.1574 47.6779 81.2435 47.691 81.333L47.73 81.599C48.3205 81.7658 48.9498 81.7306 49.518 81.499C49.579 81.456 49.718 81.356 49.691 80.945C49.6842 80.8548 49.6952 80.7642 49.7235 80.6783C49.7517 80.5924 49.7966 80.5129 49.8555 80.4443C49.9145 80.3758 49.9864 80.3196 50.0672 80.2788C50.1479 80.2381 50.2359 80.2137 50.326 80.207C50.4163 80.1995 50.5071 80.21 50.5932 80.238C50.6794 80.266 50.759 80.3108 50.8277 80.3699C50.8963 80.4291 50.9524 80.5013 50.9928 80.5823C51.0332 80.6633 51.0571 80.7516 51.063 80.842C51.1128 81.1801 51.0685 81.5253 50.9352 81.84C50.8019 82.1546 50.5845 82.4266 50.307 82.626C49.7986 82.9355 49.2083 83.0833 48.614 83.05H48.617ZM56.6 81.693C56.294 81.638 53.585 81.187 52.3 82.458C52.0236 82.7427 51.8237 83.0927 51.7188 83.4754C51.6139 83.8581 51.6074 84.2611 51.7 84.647C51.8657 85.6128 52.2683 86.5225 52.8718 87.2945C53.4753 88.0666 54.2608 88.677 55.158 89.071L55.57 89.471L52.67 91.8C52.5279 91.9143 52.437 92.0804 52.4173 92.2617C52.3976 92.4431 52.4508 92.6248 52.565 92.767C52.6795 92.9088 52.8456 92.9996 53.0268 93.0192C53.2081 93.0389 53.3897 92.986 53.532 92.872L56.563 90.436L59.285 93.079C59.413 93.2041 59.585 93.2742 59.764 93.274C59.8562 93.274 59.9474 93.2556 60.0323 93.2197C60.1171 93.1838 60.1939 93.1312 60.258 93.065C60.321 93.0002 60.3706 92.9236 60.404 92.8396C60.4374 92.7557 60.4539 92.6659 60.4526 92.5756C60.4513 92.4852 60.4322 92.396 60.3964 92.313C60.3606 92.23 60.3088 92.1549 60.244 92.092L56.97 88.913L57.16 82.389C57.1644 82.2257 57.1105 82.0661 57.0082 81.9388C56.9058 81.8115 56.7615 81.7247 56.601 81.694L56.6 81.693ZM55.63 87.774C54.9613 87.4644 54.3778 86.997 53.9299 86.4118C53.4821 85.8266 53.1832 85.1413 53.059 84.415C53.0048 84.248 52.9955 84.0698 53.032 83.8981C53.0685 83.7264 53.1496 83.5674 53.267 83.437C53.8243 83.0581 54.4959 82.8845 55.167 82.946C55.373 82.946 55.577 82.956 55.767 82.971L55.63 87.774ZM-0.000976562 70.684C-0.000976562 70.5033 0.034615 70.3243 0.103765 70.1574C0.172916 69.9904 0.274271 69.8388 0.402044 69.711C0.529818 69.5832 0.681508 69.4819 0.848452 69.4127C1.0154 69.3436 1.19433 69.308 1.37502 69.308H18.483C18.6637 69.308 18.8427 69.3436 19.0096 69.4127C19.1765 69.4819 19.3282 69.5832 19.456 69.711C19.5838 69.8388 19.6851 69.9904 19.7543 70.1574C19.8234 70.3243 19.859 70.5033 19.859 70.684C19.8593 70.8648 19.8239 71.044 19.7549 71.2112C19.6858 71.3783 19.5845 71.5303 19.4567 71.6582C19.3289 71.7862 19.1771 71.8878 19.0101 71.957C18.843 72.0263 18.6639 72.062 18.483 72.062H1.37602C1.01099 72.0617 0.661006 71.9165 0.402985 71.6583C0.144963 71.4001 2.46993e-05 71.05 2.47955e-05 70.685L-0.000976562 70.684ZM10.199 81.57L9.48502 80.887H10.94L10.199 81.57ZM13.56 82.07H11.685L12.675 81.158L13.56 82.07ZM8.73202 82.07H7.05802L7.82002 81.2L8.73202 82.07ZM14.953 81.531L14.328 80.886H15.595L14.953 81.531ZM17.864 82.07H16.357L17.194 81.231L17.864 82.07ZM20.548 76.758H4.72202C4.35709 76.758 4.0071 76.9029 3.74905 77.161C3.491 77.419 3.34602 77.769 3.34602 78.134V92.822C3.34601 93.1847 3.48919 93.5327 3.74444 93.7904C3.99968 94.0481 4.34634 94.1945 4.70902 94.198L20.535 94.354H20.548C20.9111 94.3535 21.2593 94.2097 21.517 93.954C21.6461 93.8259 21.7485 93.6735 21.8183 93.5057C21.8882 93.3378 21.9241 93.1578 21.924 92.976V81.386C21.9681 81.4129 22.0135 81.4376 22.06 81.46L22.926 81.839C23.1 81.9153 23.288 81.9548 23.478 81.955C23.8416 81.9553 24.1904 81.8115 24.448 81.555L29.337 76.697C29.7872 76.909 30.2784 77.0199 30.776 77.022C31.385 77.0234 31.9834 76.8634 32.5104 76.5583C33.0374 76.2532 33.4741 75.8138 33.776 75.285L39.36 65.485C39.5852 65.0929 39.7303 64.6601 39.787 64.2115C39.8436 63.763 39.8107 63.3077 39.69 62.872C39.4621 62.0404 38.928 61.3259 38.195 60.872L39.695 58.332L41.395 59.302C41.6031 59.4207 41.8385 59.4831 42.078 59.483C42.2007 59.483 42.3228 59.4665 42.441 59.434C42.7929 59.3378 43.0922 59.1057 43.273 58.789L46.907 52.416C47.0876 52.099 47.135 51.7233 47.0388 51.3714C46.9426 51.0194 46.7107 50.72 46.394 50.539L42.839 48.512L43.385 47.555L66.885 60.955C67.6764 61.409 68.5727 61.6483 69.485 61.649C69.958 61.6488 70.4289 61.5853 70.885 61.46C71.5527 61.2792 72.1779 60.9678 72.7244 60.5439C73.271 60.1199 73.728 59.5917 74.069 58.99L84.469 40.745C85.1589 39.5313 85.3394 38.0936 84.9709 36.7471C84.6023 35.4005 83.7148 34.2551 82.503 33.562L71.97 27.556C73.47 20.174 69.443 16.039 67.618 14.592C67.6019 14.3036 67.5557 14.0177 67.48 13.739C67.3491 13.2651 67.134 12.8187 66.845 12.421L67.87 10.893L68.8 11.424C69.0075 11.5424 69.2422 11.6048 69.481 11.605C69.7202 11.6052 69.9553 11.5431 70.1631 11.4247C70.3709 11.3064 70.5443 11.1358 70.666 10.93L73.278 6.51897C73.3712 6.36202 73.4323 6.18808 73.4575 6.00728C73.4827 5.82648 73.4717 5.64244 73.425 5.46596C73.3781 5.28958 73.2967 5.12427 73.1855 4.97957C73.0742 4.83487 72.9354 4.71365 72.777 4.62297L68.485 2.17497C68.1713 1.99608 67.7997 1.94772 67.4506 2.04033C67.1015 2.13294 66.8029 2.35907 66.619 2.66997L64.006 7.08098C63.9128 7.23793 63.8518 7.41187 63.8265 7.59267C63.8013 7.77347 63.8123 7.95748 63.859 8.13396C63.9058 8.31039 63.9872 8.47578 64.0984 8.6205C64.2097 8.76522 64.3486 8.88638 64.507 8.97698L65.473 9.52797L64.584 10.854C63.8724 10.6563 63.1206 10.6546 62.408 10.849C61.8838 10.9903 61.3929 11.2342 60.9637 11.5667C60.5346 11.8992 60.1757 12.3137 59.908 12.786C59.6373 13.2561 59.4625 13.7752 59.3938 14.3134C59.3252 14.8515 59.364 15.3979 59.508 15.921C59.6404 16.3929 59.8558 16.8375 60.144 17.234L59.031 18.896L61.318 20.428L62.4 18.813C62.753 18.9113 63.1176 18.9614 63.484 18.962C63.565 18.962 63.645 18.951 63.726 18.946C64.4257 20.3007 64.7218 21.8279 64.579 23.346L58.902 20.108C58.3015 19.7642 57.6387 19.543 56.9521 19.4572C56.2655 19.3714 55.5687 19.4226 54.902 19.608C54.2342 19.7885 53.6089 20.0997 53.0624 20.5237C52.5158 20.9477 52.0589 21.476 51.718 22.078L41.318 40.323C40.8629 41.1233 40.6256 42.0291 40.63 42.9498C40.6344 43.8705 40.8803 44.774 41.343 45.57L40.443 47.153L36.826 45.089C36.5086 44.9081 36.1324 44.8606 35.78 44.957C35.428 45.0535 35.1288 45.2859 34.948 45.603L33.839 47.546L32.269 46.646L33.378 44.703C33.4676 44.546 33.5252 44.3729 33.5477 44.1935C33.5702 44.0142 33.557 43.8322 33.509 43.658C33.4616 43.4835 33.3801 43.3202 33.2695 43.1772C33.1588 43.0343 33.021 42.9146 32.864 42.825L29.139 40.701C28.982 40.6113 28.8088 40.5535 28.6294 40.5308C28.45 40.5081 28.2679 40.521 28.0935 40.5687C27.9191 40.6164 27.7558 40.6981 27.6129 40.809C27.4701 40.9199 27.3505 41.0578 27.261 41.215L23.627 47.587C23.5375 47.7439 23.4798 47.9171 23.4573 48.0964C23.4349 48.2757 23.448 48.4577 23.496 48.632C23.5434 48.8063 23.6248 48.9696 23.7355 49.1124C23.8462 49.2551 23.984 49.3746 24.141 49.464L27.866 51.589C28.0734 51.7074 28.3082 51.7698 28.547 51.77C28.7907 51.7707 29.0301 51.7068 29.241 51.5847C29.4518 51.4626 29.6264 51.2867 29.747 51.075L30.909 49.038L32.479 49.938L31.314 51.978C31.1332 52.2949 31.0856 52.6707 31.1818 53.0227C31.278 53.3747 31.5101 53.6741 31.827 53.855L33.914 55.042L32.424 57.57L32.092 57.381C31.6999 57.156 31.2671 57.011 30.8186 56.9544C30.3701 56.8977 29.9148 56.9306 29.479 57.051C29.0426 57.1691 28.6339 57.3727 28.2767 57.6499C27.9195 57.9272 27.6208 58.2725 27.398 58.666L21.813 68.466C21.3878 69.2171 21.2611 70.1009 21.4581 70.9413C21.6551 71.7816 22.1613 72.517 22.876 73.001L21.806 77.581C21.6983 77.3371 21.5221 77.1298 21.2987 76.9842C21.0754 76.8387 20.8146 76.7611 20.548 76.761V76.758ZM19.971 82.848C19.9606 82.9203 19.9386 82.9905 19.906 83.056C19.896 83.077 19.884 83.096 19.872 83.117C19.861 83.1387 19.8487 83.1598 19.835 83.18L13.05 91.893C13.041 91.904 13.027 91.908 13.018 91.919C12.9685 91.9755 12.9096 92.0232 12.844 92.06C12.8228 92.0733 12.8007 92.0853 12.778 92.096C12.6944 92.134 12.6039 92.1548 12.512 92.157H12.5C12.4083 92.1545 12.3181 92.133 12.235 92.094C12.212 92.084 12.192 92.071 12.17 92.058C12.1068 92.0219 12.0498 91.976 12.001 91.922C11.991 91.91 11.975 91.906 11.965 91.892L5.13702 83.179C5.03131 83.0417 4.98195 82.8694 4.99902 82.697C4.98394 82.6001 4.99008 82.5011 5.01701 82.4068C5.04395 82.3126 5.09104 82.2253 5.15502 82.151L7.26402 79.741C7.3287 79.6672 7.40836 79.6081 7.49768 79.5676C7.587 79.5271 7.68394 79.5061 7.78202 79.506H17.259C17.3534 79.5078 17.4464 79.5292 17.532 79.569C17.5618 79.5853 17.5902 79.604 17.617 79.625C17.6606 79.6472 17.7016 79.6744 17.739 79.706C17.75 79.717 17.753 79.731 17.763 79.742C17.773 79.753 17.784 79.755 17.792 79.765L19.83 82.325C19.838 82.335 19.84 82.348 19.847 82.359C19.8706 82.3878 19.8917 82.4186 19.91 82.451C19.9207 82.4777 19.9297 82.5051 19.937 82.533C19.944 82.554 19.951 82.574 19.956 82.594C19.976 82.6702 19.9824 82.7495 19.975 82.828C19.973 82.842 19.971 82.842 19.971 82.852V82.848ZM68.295 5.24196L70.195 6.32597L68.985 8.36797L67.085 7.28398L68.295 5.24196ZM62.302 14.154C62.3913 13.9967 62.5109 13.8587 62.6539 13.748C62.7969 13.6373 62.9604 13.556 63.135 13.509C63.2532 13.4759 63.3753 13.459 63.498 13.459C63.7998 13.4595 64.0931 13.559 64.3329 13.7421C64.5728 13.9253 64.746 14.182 64.826 14.473C64.922 14.825 64.8744 15.2008 64.6937 15.5178C64.5129 15.8348 64.2139 16.0672 63.862 16.164C63.6876 16.2123 63.5053 16.2256 63.3258 16.203C63.1462 16.1803 62.9729 16.1222 62.816 16.032C62.6588 15.9426 62.5209 15.823 62.4102 15.68C62.2995 15.537 62.2182 15.3735 62.171 15.199C62.1226 15.025 62.1091 14.8432 62.1314 14.664C62.1537 14.4847 62.2114 14.3118 62.301 14.155L62.302 14.154ZM66.275 17.885C66.4285 17.7442 66.5713 17.5921 66.702 17.43C67.8204 18.5512 68.6518 19.9257 69.1258 21.4367C69.5999 22.9478 69.7025 24.5508 69.425 26.11L67.07 24.768C67.6369 22.4526 67.3545 20.0108 66.274 17.886L66.275 17.885ZM43.714 41.688L54.114 23.442C54.2769 23.1549 54.4949 22.9029 54.7556 22.7006C55.0163 22.4982 55.3145 22.3495 55.633 22.263C55.9512 22.1752 56.2836 22.1513 56.6111 22.1927C56.9386 22.234 57.2546 22.3398 57.541 22.504L81.141 35.96C81.7196 36.2908 82.1434 36.8375 82.3195 37.4803C82.4955 38.1232 82.4094 38.8095 82.08 39.389L71.68 57.634C71.5172 57.921 71.2991 58.173 71.0384 58.3754C70.7777 58.5777 70.4795 58.7264 70.161 58.813C69.8427 58.9009 69.5101 58.9249 69.1824 58.8835C68.8548 58.8421 68.5385 58.7362 68.252 58.572L44.652 45.116C44.0736 44.7852 43.6501 44.2386 43.4742 43.5959C43.2984 42.9533 43.3846 42.2671 43.714 41.688ZM28.034 48.524L26.7 47.763L28.971 43.781L30.305 44.542L28.034 48.524ZM25.367 74.46L26.843 75.301L24.665 77.465L25.367 74.46ZM36.659 48.165L40.275 50.227L43.828 52.253L41.558 56.235L40.14 55.426C40.0648 55.3556 39.982 55.2939 39.893 55.242L36.514 53.315C36.4236 53.2642 36.3276 53.2239 36.228 53.195L34.387 52.142L36.659 48.165ZM36.309 56.41L37.299 56.975L35.809 59.502L34.814 58.942L36.309 56.41ZM24.209 69.837L29.794 60.037C29.8387 59.9584 29.8984 59.8894 29.9698 59.834C30.0412 59.7785 30.1228 59.7378 30.21 59.714C30.2971 59.6899 30.388 59.6834 30.4776 59.6947C30.5672 59.706 30.6537 59.735 30.732 59.78L31.977 60.489C32.0516 60.5597 32.1341 60.6214 32.223 60.673L35.604 62.602C35.6887 62.6475 35.7778 62.684 35.87 62.711L36.709 63.189C36.7876 63.2336 36.8567 63.2933 36.9121 63.3647C36.9675 63.4361 37.0083 63.5177 37.032 63.605C37.0561 63.6922 37.0626 63.7834 37.0511 63.8732C37.0396 63.963 37.0103 64.0496 36.965 64.128L31.381 73.928C31.2901 74.0863 31.1402 74.2022 30.964 74.2504C30.7879 74.2985 30.5999 74.275 30.441 74.185L29.778 73.807L25.129 71.156L24.466 70.778C24.3871 70.7333 24.3178 70.6735 24.2621 70.602C24.2063 70.5305 24.1652 70.4487 24.1412 70.3612C24.1171 70.2738 24.1106 70.1825 24.1219 70.0925C24.1332 70.0026 24.1621 69.9157 24.207 69.837H24.209ZM9.69802 83.45L10.998 88.441L7.08802 83.45H9.69802ZM15.488 83.45H17.888L14.129 88.277L15.488 83.45ZM11.121 83.45H14.058L12.532 88.85L11.121 83.45Z" fill="white"/>
</g>
<defs>
<clipPath id="clip0_2_17">
<rect width="110" height="110" fill="white"/>
</clipPath>
</defs>
</svg>
